<?xml version="1.0" encoding="UTF-8" standalone="no" ?>
<!DOCTYPE svg PUBLIC "-//W3C//DTD SVG 1.1//EN" "http://www.w3.org/Graphics/SVG/1.1/DTD/svg11.dtd">
<svg xmlns="http://www.w3.org/2000/svg" xmlns:xlink="http://www.w3.org/1999/xlink" version="1.1" width="250" height="250" viewBox="0 0 250 250" xml:space="preserve">
<desc>Created with Fabric.js 5.3.0</desc>
<defs>
</defs>
<g transform="matrix(1.5158116269 0 0 1.5158116269 127.6094780775 105.6060430247)" id="k29F4I48sZkupztlUmcwD"  >
<path style="stroke: rgb(0,0,0); stroke-width: 4; stroke-dasharray: none; stroke-linecap: butt; stroke-dashoffset: 0; stroke-linejoin: miter; stroke-miterlimit: 4; fill: rgb(255,255,255); fill-opacity: 0; fill-rule: nonzero; opacity: 1;" vector-effect="non-scaling-stroke"  transform=" translate(0, 0)" d="M -53.67734 -19.86951 L -75.02965 33.214710000000004 L 75.02966 33.214710000000004 L 43.00119000000001 -19.86951 L -23.131669999999986 -33.21471 z" stroke-linecap="round" />
</g>
<g transform="matrix(1.470177165 0 0 1.4882877473 97.9752451422 115.8580225013)" id="kZK-FvKd52RzHTCw1WjUj"  >
<path style="stroke: rgb(0,0,0); stroke-width: 4; stroke-dasharray: none; stroke-linecap: butt; stroke-dashoffset: 0; stroke-linejoin: miter; stroke-miterlimit: 4; fill: rgb(255,255,255); fill-opacity: 0; fill-rule: nonzero; opacity: 1;" vector-effect="non-scaling-stroke"  transform=" translate(0, 0)" d="M -35.29063 -26.94039 L 7.4140000000000015 -16.26423 L 35.29063 26.9404" stroke-linecap="round" />
</g>
<g transform="matrix(1.5778377204 0 0 1.5778377204 122.4753596341 78.1394011439)" id="YxGNf5QxYOpb1SeeZSpiS"  >
<path style="stroke: rgb(0,0,0); stroke-width: 4; stroke-dasharray: none; stroke-linecap: butt; stroke-dashoffset: 0; stroke-linejoin: miter; stroke-miterlimit: 4; fill: rgb(255,255,255); fill-opacity: 0; fill-rule: nonzero; opacity: 1;" vector-effect="non-scaling-stroke"  transform=" translate(0, 0)" d="M -8.60024 8.8968 L 8.60023 -8.896789999999998" stroke-linecap="round" />
</g>
<g transform="matrix(0.7071067812 -0.7071067812 0.7071067812 0.7071067812 88.9545563641 45.605422215)" id="p7QmEgJrXThWJh4QQV0n5"  >
<path style="stroke: rgb(0,0,0); stroke-width: 1; stroke-dasharray: none; stroke-linecap: butt; stroke-dashoffset: 0; stroke-linejoin: miter; stroke-miterlimit: 4; fill: rgb(255,255,255); fill-opacity: 0; fill-rule: nonzero; opacity: 0.34;" vector-effect="non-scaling-stroke"  transform=" translate(0, 0)" d="M 0 0" stroke-linecap="round" />
</g>
<g transform="matrix(0.1080891782 0 0 0.1320023065 163.2257501196 101.8836858066)" id="kFwmhKmRMnbHeMmXvp7cX"  >
<path style="stroke: none; stroke-width: 3; stroke-dasharray: none; stroke-linecap: butt; stroke-dashoffset: 0; stroke-linejoin: miter; stroke-miterlimit: 4; fill: rgb(156,162,165); fill-rule: nonzero; opacity: 1;" vector-effect="non-scaling-stroke"  transform=" translate(-300.7835, -299.955)" d="M 92.359 299.958 C 92.359 301.75 90.911 303.20200000000006 89.11999999999999 303.20200000000006 L 45.786 303.20200000000006 C 43.989000000000004 303.20200000000006 42.536 301.75000000000006 42.536 299.958 C 42.536 298.161 43.988 296.708 45.786 296.708 L 89.12 296.708 C 90.912 296.708 92.359 298.16 92.359 299.958 z M 222.452 296.708 L 179.118 296.708 C 177.326 296.708 175.868 298.16 175.868 299.958 C 175.868 301.75 177.326 303.20200000000006 179.118 303.20200000000006 L 222.452 303.20200000000006 C 224.245 303.20200000000006 225.694 301.75000000000006 225.694 299.958 C 225.694 298.16 224.245 296.708 222.452 296.708 z M 355.778 296.708 L 312.442 296.708 C 310.651 296.708 309.201 298.16 309.201 299.958 C 309.201 301.75 310.651 303.20200000000006 312.442 303.20200000000006 L 355.778 303.20200000000006 C 357.569 303.20200000000006 359.028 301.75000000000006 359.028 299.958 C 359.028 298.16 357.569 296.708 355.778 296.708 z M 155.782 296.708 L 112.44800000000001 296.708 C 110.656 296.708 109.203 298.16 109.203 299.958 C 109.203 301.75 110.657 303.20200000000006 112.44800000000001 303.20200000000006 L 155.782 303.20200000000006 C 157.579 303.20200000000006 159.02700000000002 301.75000000000006 159.02700000000002 299.958 C 159.027 298.16 157.579 296.708 155.782 296.708 z M 289.114 296.708 L 245.78099999999998 296.708 C 243.98799999999997 296.708 242.53999999999996 298.16 242.53999999999996 299.958 C 242.53999999999996 301.75 243.98799999999997 303.20200000000006 245.78099999999998 303.20200000000006 L 289.114 303.20200000000006 C 290.90799999999996 303.20200000000006 292.36499999999995 301.75000000000006 292.36499999999995 299.958 C 292.365 298.16 290.908 296.708 289.114 296.708 z M 422.45 296.708 L 379.114 296.708 C 377.31699999999995 296.708 375.86499999999995 298.16 375.86499999999995 299.958 C 375.86499999999995 301.75 377.31699999999995 303.20200000000006 379.114 303.20200000000006 L 422.45 303.20200000000006 C 424.241 303.20200000000006 425.694 301.75000000000006 425.694 299.958 C 425.694 298.16 424.241 296.708 422.45 296.708 z M 555.782 296.708 L 512.4490000000001 296.708 C 510.65200000000004 296.708 509.1960000000001 298.16 509.1960000000001 299.958 C 509.1960000000001 301.75 510.6520000000001 303.20200000000006 512.4490000000001 303.20200000000006 L 555.782 303.20200000000006 C 557.5730000000001 303.20200000000006 559.0260000000001 301.75000000000006 559.0260000000001 299.958 C 559.026 298.16 557.573 296.708 555.782 296.708 z M 489.11 296.708 L 445.78000000000003 296.708 C 443.983 296.708 442.533 298.16 442.533 299.958 C 442.533 301.75 443.983 303.20200000000006 445.78000000000003 303.20200000000006 L 489.11 303.20200000000006 C 490.904 303.20200000000006 492.36 301.75000000000006 492.36 299.958 C 492.36 298.16 490.904 296.708 489.11 296.708 z M 579.118 296.708 C 577.321 296.708 575.868 298.16 575.868 299.958 C 575.868 301.75 577.321 303.20200000000006 579.118 303.20200000000006 L 600.7840000000001 303.20200000000006 L 600.7840000000001 296.70900000000006 L 579.118 296.70900000000006 z M 22.447 296.708 L 0.783 296.708 L 0.783 303.201 L 22.447000000000003 303.201 C 24.244000000000003 303.201 25.698000000000004 301.75 25.698000000000004 299.95300000000003 C 25.698 298.162 24.244 296.708 22.447 296.708 z" stroke-linecap="round" />
</g>
<g transform="matrix(0.9536755991 0 0 0.9536755991 129.7989426279 102.2112498385)" id="V9cSeA5Tj2p-HpegJIM1S"  >
<path style="stroke: rgb(0,0,0); stroke-width: 1; stroke-dasharray: none; stroke-linecap: butt; stroke-dashoffset: 0; stroke-linejoin: miter; stroke-miterlimit: 4; fill: rgb(255,255,255); fill-opacity: 0; fill-rule: nonzero; opacity: 0.5;" vector-effect="non-scaling-stroke"  transform=" translate(0, 0)" d="M 0 -3.72236 L 0 3.7223499999999996" stroke-linecap="round" />
</g>
<g transform="matrix(0.7831316678 0 0 0.7831316678 197.6525576112 101.4679902387)" id="0IM0hAQL3GsjIR_7Z3i-x"  >
<path style="stroke: rgb(0,0,0); stroke-width: 1; stroke-dasharray: none; stroke-linecap: butt; stroke-dashoffset: 0; stroke-linejoin: miter; stroke-miterlimit: 4; fill: rgb(255,255,255); fill-opacity: 0; fill-rule: nonzero; opacity: 0.5;" vector-effect="non-scaling-stroke"  transform=" translate(0, 0)" d="M 0 -4.22236 L 0 4.2223500000000005" stroke-linecap="round" />
</g>
</svg>